<svg xmlns="http://www.w3.org/2000/svg" viewBox="0 0 19.664 15.184" width="100%" height="100%">
  <path d="M7.549 15.149c.104.009.301.021.673.03 0 0 4.238.271 8.456-3.693 0 0 2.985-2.763 2.985-6.19 0 .001.225-4.71-5.486-4.759 0 0-2.906-.108-5.479 1.632 0 0-.193.127-.156.195.041.07.259-.028.259-.028s1.043-.47 2.123-.473c0 0 3.12-.149 3.215 3.244 0 .001.115 2.526-2.393 5.118 0 0-1.854 1.863-3.988 2.183 0 0-.185.023-.178.089.003.044.062.073.155.091 0 0 .31.057.582.057 0 0 1.256.049 2.859-.76 0 0 2.606-1.155 4.143-4.121 0 0 .877-1.717.839-3.169 0 0 .116-1.573-.92-2.654 0 0 1.872 1.05 1.874 3.66 0 0 .171 2.369-2.084 5.138 0 0-1.391 1.859-3.908 3.155 0 0-1.532.885-3.648 1.05 0 0-.215.012-.215.087 0 .093.292.118.292.118" fill="#00678c"/>
  <path d="M12.115.034a11.656 11.656 0 0 0-.673-.03S7.203-.267 2.985 3.697c0 0-2.984 2.763-2.984 6.19 0 0-.225 4.709 5.485 4.759 0 0 2.907.108 5.479-1.632 0 0 .193-.127.156-.195-.04-.07-.259.028-.259.028s-1.042.471-2.122.473c0 0-3.121.149-3.216-3.245 0 0-.114-2.526 2.394-5.118 0 0 1.854-1.863 3.987-2.183 0 0 .185-.023.178-.089-.003-.044-.063-.073-.155-.091 0 0-.309-.057-.582-.057 0 0-1.257-.049-2.86.76 0 0-2.606 1.155-4.142 4.121 0 0-.878 1.717-.839 3.17 0 0-.116 1.571.92 2.652 0 0-1.872-1.049-1.874-3.659 0 0-.172-2.369 2.083-5.138 0 0 1.391-1.859 3.908-3.156 0 0 1.532-.884 3.648-1.049 0 0 .215-.012.215-.087.001-.091-.29-.117-.29-.117" fill="#00678c"/>
</svg>
