<svg xmlns="http://www.w3.org/2000/svg" viewBox="0 0 48 48" fill="none">
  <!-- Google Maps Style 3-Panel Folded Map in Skyblue & Green -->
  <polygon points="4,10 17,6 17,38 4,42" fill="#38bdf8" />
  <polygon points="17,6 31,10 31,42 17,38" fill="#10b981" />
  <polygon points="31,10 44,6 44,38 31,42" fill="#0284c7" />
  <!-- Fold shading highlights -->
  <polygon points="17,6 31,10 31,42 17,38" fill="#ffffff" opacity="0.16" />
  <!-- White Metro Route Line -->
  <path d="M7 26 Q17 18 24 24 T41 20" stroke="#ffffff" stroke-width="3" stroke-linecap="round" fill="none"/>
  <!-- Station dots -->
  <circle cx="12" cy="22" r="3" fill="#ffffff" />
  <circle cx="24" cy="24" r="3.5" fill="#ffffff" stroke="#10b981" stroke-width="1.5" />
  <circle cx="37" cy="21" r="3" fill="#ffffff" />
  <!-- Google Style Pin -->
  <path d="M24 8 C20.7 8 18 10.7 18 14 C18 18.5 24 25 24 25 S30 18.5 30 14 C30 10.7 27.3 8 24 8 Z" fill="#ea4335"/>
  <circle cx="24" cy="13.5" r="2.2" fill="#ffffff"/>
</svg>
