<?xml version="1.0" encoding="utf-8"?>
<!-- Generator: Adobe Illustrator 27.5.0, SVG Export Plug-In . SVG Version: 6.00 Build 0)  -->
<svg version="1.1" xmlns="http://www.w3.org/2000/svg" xmlns:xlink="http://www.w3.org/1999/xlink" x="0px" y="0px"
	 viewBox="0 0 750 500" style="enable-background:new 0 0 750 500;" xml:space="preserve">
<g id="BACKGROUND">
	<rect style="fill:#F4C882;" width="750" height="500"/>
</g>
<g id="OBJECTS">
	<g>
		<defs>
			<rect id="SVGID_1_" width="750" height="500"/>
		</defs>
		<clipPath id="SVGID_00000026128822632684310180000009760067789257195187_">
			<use xlink:href="#SVGID_1_"  style="overflow:visible;"/>
		</clipPath>
		<path style="clip-path:url(#SVGID_00000026128822632684310180000009760067789257195187_);fill:#D8572A;" d="M166.698,205.181
			c65.148-19.003,113.006-95.098,120.345-158.964c3.457-30.081,2.816-76.125-16.786-101.369
			c-10.914-14.056-51.772-55.623-77.158-79.153c-11.606-10.757-26.65-17.02-42.457-17.764c-32.224-1.517-92.132-1.99-124.332,17.876
			C-28.233-100.543-86.479-47.265-92.202,20.212c-2.386,28.134-2.678,68.808,23.013,86.78c21.48,15.026,49.145,11.602,73.174,19.167
			c23.164,7.292,33.684,28.221,48.551,45.319c17.112,19.68,41.359,33.152,67.18,36.975
			C136.092,210.878,151.845,209.513,166.698,205.181z"/>
		<g style="clip-path:url(#SVGID_00000026128822632684310180000009760067789257195187_);">
			<path style="fill:#F7B538;" d="M276.495,481.871c-17.978-67.184-85.392-71.166-132.236-70.054
				c-40.905,0.971-81.472-5.676-118.795-22.845c-36.167-16.637-70.894-58.355-112.773-57.598
				c-15.018,0.271-29.449,6.488-41.746,15.114c-37.611,26.385-71.853,73.009-70.713,120.629
				c1.342,56.077,50.521,56.031,50.456,56.009c0.066,0.022,82.192-11.181,122.422,3.776c41.444,15.408,74.315,44.321,118.884,47.721
				c37.699,2.876,76.422-1.392,112.485-15.787C228.732,549.154,287.928,524.601,276.495,481.871z M-149.916,522.922
				c0.043,0.015,0.092,0.031,0.145,0.049C-149.826,522.953-149.875,522.936-149.916,522.922z"/>
			<path style="fill:#DB7C26;" d="M55.885,537.076c0.237,0.064,0.429,0.116,0.592,0.16C56.295,537.187,56.09,537.131,55.885,537.076
				z"/>
			<path style="fill:#DB7C26;" d="M56.696,537.295c0.056,0.015,0.107,0.029,0.151,0.041C56.8,537.323,56.75,537.31,56.696,537.295z"
				/>
			<path style="fill:#DB7C26;" d="M56.477,537.236c0.078,0.021,0.15,0.041,0.218,0.059
				C56.631,537.278,56.559,537.258,56.477,537.236z"/>
			<path style="fill:#DB7C26;" d="M56.847,537.336c0.076,0.021,0.143,0.039,0.192,0.052
				C56.994,537.376,56.929,537.358,56.847,537.336z"/>
			<path style="fill:#DB7C26;" d="M57.039,537.388C57.176,537.425,57.159,537.42,57.039,537.388L57.039,537.388z"/>
		</g>
		<path style="clip-path:url(#SVGID_00000026128822632684310180000009760067789257195187_);fill:#F7B538;" d="M740.609-73.654
			c-7.86-22.352-17.985-46.591-39.297-56.945c-17.627-8.564-38.623-5.3-57.423,0.234c-18.8,5.535-37.468,13.229-57.065,13.033
			c-16.516-0.165-32.56-5.969-49.07-6.42c-10.127-0.276-20.187,1.468-30.167,3.206c-12.999,2.264-25.394,5.534-35.967,13.428
			c0.102,0.071-38.062,33.827-49.859,56.234c-5.913,11.231-11.041,23.659-9.474,36.254c5.778,46.456,70.471,44.931,97.084,72.311
			c25.719,26.46,21.068,70.786,34.678,103.306c8.599,20.547,22.025,39.58,40.661,51.779
			c48.541,31.775,118.415,14.483,157.411-24.057c11.552-11.417,22.761-23.786,28.802-38.863c4.781-11.934,6.072-24.965,6.494-37.814
			C779.502,48.592,761.666-13.773,740.609-73.654z"/>
		<path style="clip-path:url(#SVGID_00000026128822632684310180000009760067789257195187_);fill:#DB7C26;" d="M637.46,343.066
			c-24.427,25.04-52.218,57.673-54.731,94.196c-2.932,42.611,38.808,57.933,48.25,95.579c-0.001,34.329,26.754,58.111,53.623,75.107
			c22.313,14.115,54.26,26.581,69.709-3.698c14.601-28.617,34.603-53.375,37.887-83.153c3.271-29.664-11.678-56.11,10.293-73.148
			c26.318-20.409,49.904-42.759,50.25-78.355c0.302-31.138-16.903-61.992-40.806-81.357
			C757.435,244.084,676.521,303.025,637.46,343.066z"/>
		<path style="clip-path:url(#SVGID_00000026128822632684310180000009760067789257195187_);fill:#C32F27;" d="M199.522,89.489
			c22.753-35.008,27.446-83.829,3.294-117.887c-25.295-35.67-59.015-92.811-100.925-105.289
			C46.409-150.207-39.248-82.241-72.833-16.759c-7.512,14.647-13.555,30.219-15.911,46.51
			c-4.787,33.099,11.735,79.009,51.769,78.685c18.808-0.153,33.969-10.512,53.414-5.835c21.754,5.232,39.468,21.241,60.185,29.3
			c20.53,7.987,40.973,11.32,62.573,5.213C164.166,129.372,185.276,111.408,199.522,89.489z"/>
	</g>
	<g>
		<defs>
			<rect id="SVGID_00000043457719645250067640000007103119472116562603_" width="750" height="500"/>
		</defs>
		<clipPath id="SVGID_00000119796778942709694790000013358754118676097667_">
			<use xlink:href="#SVGID_00000043457719645250067640000007103119472116562603_"  style="overflow:visible;"/>
		</clipPath>
		<g style="clip-path:url(#SVGID_00000119796778942709694790000013358754118676097667_);">
			<g>
				<g>
					<path style="fill:#C32F27;" d="M71.383,525.296c-2.128-11.911-2.938-24.037-2.384-36.124c0.551-12.038,2.694-23.786,5.422-35.5
						c4.879-20.948,10.791-43.961,1.918-64.732c-4.191-9.812-11.628-17.596-17.917-26.053c-5.943-7.992-10.525-16.889-13.532-26.388
						c-5.98-18.888-5.866-39.728,0.87-58.403c3.682-10.209,9.33-19.606,10.924-30.494c1.462-9.988,0.178-20.349-3.719-29.664
						c-0.942-2.252-2.035-4.428-3.264-6.537c-0.327,0.252-0.654,0.505-0.982,0.757c15.486,17.298,33.549,38.275,29.554,63.363
						c-1.745,10.956-8.847,19.421-13.607,29.116c-2.218,4.516-3.835,9.363-3.891,14.438c-0.064,5.799,1.732,11.447,4.108,16.677
						c4.96,10.917,12.64,20.255,19.668,29.868c7.257,9.926,14.142,20.281,18.9,31.669c4.694,11.233,7.272,23.659,5.745,35.836
						c-1.36,10.848-6.381,20.416-12.441,29.346c-5.689,8.384-12.14,16.278-17.122,25.127c-2.415,4.29-4.467,8.809-5.821,13.549
						c-1.655,5.797-2.2,11.846-2.347,17.852c-0.078,3.171-0.045,6.342-0.012,9.513c0.356-0.147,0.711-0.295,1.067-0.442
						c-1.515-1.411-1.979-3.547-1.076-5.436c0.345-0.722-0.732-1.357-1.079-0.631c-1.139,2.383-0.676,5.136,1.272,6.951
						c0.387,0.361,1.073,0.115,1.067-0.442c-0.067-6.326-0.139-12.686,0.678-18.973c0.756-5.818,2.418-11.414,4.937-16.71
						c4.387-9.224,10.744-17.309,16.634-25.592c5.894-8.289,11.526-17.035,14.139-26.976c3.041-11.569,1.955-23.897-1.514-35.242
						c-3.53-11.543-9.57-22.155-16.328-32.089c-6.798-9.993-14.71-19.251-20.947-29.621c-3.232-5.374-6.103-11.138-7.496-17.287
						c-1.321-5.83-0.819-11.591,1.337-17.145c3.869-9.966,11.391-18.144,14.341-28.527c6.665-23.456-8.265-45.519-22.9-62.33
						c-1.974-2.268-3.979-4.509-5.985-6.749c-0.479-0.535-1.334,0.152-0.982,0.757c5.298,9.091,7.844,19.626,7.342,30.135
						c-0.256,5.346-1.344,10.586-3.133,15.626c-1.866,5.256-4.339,10.266-6.488,15.406c-7.522,17.99-8.981,38.113-4.475,57.069
						c2.246,9.45,5.969,18.573,11.089,26.833c5.469,8.823,12.864,16.245,18.376,25.033c12.479,19.898,8.306,43.693,3.279,65.24
						c-2.661,11.407-5.296,22.774-6.362,34.465c-1.076,11.794-0.861,23.705,0.644,35.451c0.357,2.79,0.788,5.569,1.283,8.338
						C70.319,526.419,71.524,526.084,71.383,525.296L71.383,525.296z"/>
				</g>
			</g>
			<g>
				<g>
					<path style="fill:#C32F27;" d="M71.987,528.036c1.445-10.045,5.452-19.439,10.552-28.15
						c5.123-8.751,11.182-17.019,17.445-24.983c6.159-7.832,13.009-15.344,21.494-20.701c8.754-5.527,18.834-8.284,28.25-12.407
						c9.189-4.024,17.745-9.466,25.305-16.059c7.688-6.704,14.089-14.659,20.356-22.664c6.233-7.961,12.427-16.007,19.8-22.965
						c6.844-6.459,14.529-12.004,22.775-16.534c16.486-9.057,35.231-14.048,54.055-14.114c2.267-0.008,4.532,0.059,6.795,0.19
						c0.697,0.04,0.859-1.086,0.166-1.228c-10.456-2.142-20.012,5.94-27.209,12.463c-7.676,6.958-14.329,15.056-19.675,23.93
						c-11.458,19.022-14.817,41.631-26.256,60.631c-9.923,16.481-25.394,29.557-43.215,36.771
						c-9.423,3.814-19.325,5.666-29.411,6.624c-10.416,0.989-20.903,1.24-31.271,2.719c-10.025,1.43-20.016,4.157-28.585,9.72
						c-8.036,5.217-14.614,12.634-18.935,21.178c-1.043,2.062-1.948,4.191-2.731,6.365c-0.273,0.758,0.934,1.085,1.205,0.332
						c3.29-9.132,9.037-17.314,16.544-23.473c7.909-6.488,17.563-10.12,27.523-12.034c20.089-3.862,41.014-1.754,60.641-8.257
						c17.622-5.839,33.315-17.203,44.432-32.061c6.171-8.247,10.519-17.524,14.145-27.123c3.947-10.447,7.174-21.189,11.941-31.311
						c4.42-9.386,10.23-18.102,17.197-25.79c3.438-3.794,7.151-7.34,11.104-10.594c4.227-3.48,8.842-6.906,14.168-8.46
						c2.635-0.769,5.357-0.978,8.055-0.425c0.055-0.409,0.111-0.818,0.166-1.228c-18.772-1.088-37.68,2.72-54.706,10.658
						c-8.504,3.965-16.516,8.973-23.793,14.897c-7.728,6.291-14.306,13.695-20.497,21.471c-6.487,8.148-12.667,16.583-19.969,24.039
						c-7.208,7.36-15.546,13.57-24.679,18.339c-9.325,4.87-19.546,7.622-28.947,12.309c-9.057,4.515-16.534,11.296-23.067,18.942
						c-6.531,7.644-12.553,15.881-18.042,24.301c-5.453,8.364-10.235,17.322-12.833,27.013c-0.647,2.414-1.144,4.861-1.5,7.334
						C70.668,528.491,71.873,528.831,71.987,528.036L71.987,528.036z"/>
				</g>
			</g>
			<g>
				<g>
					<path style="fill:#C32F27;" d="M71.269,527.689c7.688-16.609,19.319-31.252,33.606-42.674
						c7.11-5.684,14.888-10.551,23.116-14.447c9.614-4.552,19.825-7.282,29.989-10.29c10.424-3.085,20.451-6.996,29.747-12.692
						c8.768-5.372,16.618-12.057,23.716-19.476c7.096-7.417,13.47-15.48,19.717-23.613c5.54-7.214,11.106-14.407,16.455-21.764
						c4.405-6.059,8.882-12.117,14.318-17.306c6.095-5.818,13.306-10.231,21.231-13.09c2.285-0.824,4.612-1.522,6.963-2.131
						c0.778-0.202,0.448-1.407-0.332-1.205c-8.574,2.219-16.732,5.816-23.762,11.253c-5.939,4.592-10.841,10.276-15.356,16.237
						c-11.361,14.999-22.173,30.483-34.574,44.665c-6.914,7.907-14.46,15.323-23.043,21.415c-8.891,6.31-18.69,11.121-29.038,14.525
						c-10.463,3.443-21.26,5.843-31.455,10.083c-8.393,3.491-16.365,7.957-23.736,13.276
						c-14.684,10.597-27.009,24.486-35.575,40.454c-1.083,2.019-2.101,4.071-3.064,6.15
						C69.854,527.783,70.931,528.419,71.269,527.689L71.269,527.689z"/>
				</g>
			</g>
			<g>
				<g>
					<path style="fill:#C32F27;" d="M109.937,413.039c0.102-5.821,0.201-11.68,1.158-17.436c0.927-5.575,2.76-10.839,5.655-15.701
						c5.648-9.482,13.804-17.257,22.048-24.465c8.127-7.106,16.628-13.814,24.124-21.609c7.324-7.615,13.248-16.119,16.996-26.038
						c3.92-10.375,7.812-24.274,20.203-27.241c-0.203-0.348-0.405-0.696-0.608-1.045c-8.066,6.682-10.321,17.781-9.966,27.777
						c0.23,6.48,1.372,12.876,2.109,19.306c0.712,6.211,1.241,12.71-0.646,18.769c-5.365,17.225-25.595,26.887-26.293,46.061
						c-0.457,12.554,7.221,24.749,3.793,37.288c-0.212,0.777,0.993,1.109,1.205,0.332c3.001-10.975-2.348-21.714-3.536-32.526
						c-0.552-5.021-0.031-9.959,1.961-14.622c1.734-4.058,4.302-7.716,7.031-11.159c5.499-6.939,12.078-13.368,15.723-21.568
						c4.877-10.974,1.766-23.219,0.477-34.631c-1.335-11.818-0.93-25.898,9.026-34.145c0.509-0.421-0.046-1.179-0.608-1.045
						c-10.135,2.427-15.287,12.449-18.624,21.409c-2.065,5.544-3.932,11.123-6.883,16.281c-2.672,4.672-5.94,8.975-9.524,12.982
						c-14.708,16.444-34.629,27.835-47.181,46.271c-3.576,5.252-6.123,10.971-7.366,17.214c-1.279,6.427-1.411,13.008-1.525,19.538
						C108.673,413.843,109.923,413.844,109.937,413.039L109.937,413.039z"/>
				</g>
			</g>
			<g>
				<g>
					<path style="fill:#C32F27;" d="M197.386,279.987c-7.842,7.217-13.318,16.901-15.459,27.345
						c-1.232,6.012-0.877,12.027-1.119,18.115c-0.242,6.087-1.882,11.757-4.786,17.104c-5.445,10.029-13.882,17.906-20.727,26.922
						c-3.337,4.394-6.322,9.096-8.291,14.273c-2.056,5.406-2.685,11.158-2.337,16.91c0.806,13.306,6.057,26.12,5.039,39.57
						c-0.061,0.802,1.19,0.798,1.25,0c0.895-11.833-3.036-23.215-4.572-34.818c-0.766-5.784-0.889-11.708,0.572-17.397
						c1.399-5.447,4.121-10.433,7.316-15.023c6.415-9.214,14.781-16.904,20.82-26.4c2.904-4.567,5.251-9.565,6.29-14.903
						c1.199-6.156,0.412-12.44,0.961-18.648c1.081-12.233,6.904-23.861,15.926-32.165
						C198.863,280.325,197.978,279.443,197.386,279.987L197.386,279.987z"/>
				</g>
			</g>
			<g>
				<g>
					<path style="fill:#C32F27;" d="M115.862,457.233c2.13-20.828,7.892-41.261,16.873-60.171
						c4.439-9.345,9.654-18.322,15.591-26.796c3.018-4.308,6.223-8.483,9.608-12.509c3.285-3.906,6.777-7.644,9.829-11.742
						c3.586-4.814,6.089-9.997,7.436-15.856c1.51-6.566,2.554-13.261,3.791-19.883c0.147-0.786-1.058-1.123-1.205-0.332
						c-1.111,5.95-2.145,11.922-3.354,17.853c-1.133,5.561-2.988,10.648-6.173,15.372c-2.953,4.38-6.553,8.267-9.986,12.265
						c-3.313,3.86-6.465,7.857-9.446,11.979c-12.156,16.811-21.437,35.696-27.399,55.564c-3.353,11.172-5.63,22.651-6.816,34.255
						C114.53,458.032,115.781,458.026,115.862,457.233L115.862,457.233z"/>
				</g>
			</g>
			<g>
				<g>
					<path style="fill:#C32F27;" d="M70.999,526.735c6.028-16.615,14.871-32.327,26.456-45.71
						c11.378-13.145,25.535-24.081,41.815-30.41c9.58-3.724,19.77-5.086,29.536-8.163c10.097-3.181,18.878-9.02,27.315-15.271
						c8.376-6.206,16.275-12.971,22.687-21.241c6.393-8.246,11.534-17.382,17.982-25.586c11.738-14.935,28.541-25.509,47.122-29.529
						c2.343-0.507,4.708-0.906,7.087-1.2c0.788-0.097,0.798-1.349,0-1.25c-18.62,2.3-36.287,11.036-49.361,24.51
						c-7.158,7.377-12.528,16.164-18.285,24.617c-2.988,4.387-6.107,8.698-9.667,12.643c-3.633,4.026-7.666,7.671-11.876,11.08
						c-8.245,6.676-17.105,13.279-26.849,17.595c-10.051,4.451-21.137,5.546-31.518,8.971
						c-16.492,5.443-31.114,15.534-43.012,28.087c-12.157,12.827-21.605,28.132-28.298,44.456c-0.823,2.007-1.601,4.031-2.34,6.07
						C69.519,527.161,70.727,527.487,70.999,526.735L70.999,526.735z"/>
				</g>
			</g>
			<g>
				<g>
					<path style="fill:#C32F27;" d="M51.176,215.258c2.621,9.563,10.3,16.355,14.707,25.001c5.388,10.57,3.667,22.809,0.24,33.701
						c-3.457,10.987-8.826,21.359-11.107,32.712c-2.171,10.805-0.718,21.681,3.202,31.914c3.979,10.387,10.016,19.831,16.499,28.813
						c6.834,9.468,13.749,18.769,17.643,29.905c3.706,10.599,5.092,22.148,3.327,33.275c-1.696,10.693-6.736,20.056-13.441,28.435
						c-6.394,7.99-9.547,17.541-11.263,27.533c-2.033,11.833-1.99,23.83-1.651,35.793c0.062,2.191-0.344,5.016,0.922,6.944
						c0.44,0.67,1.523,0.044,1.079-0.631c-0.795-1.211-0.647-2.777-0.689-4.169c-0.049-1.634-0.096-3.268-0.136-4.901
						c-0.078-3.166-0.13-6.333-0.118-9.5c0.024-6.118,0.287-12.245,1.066-18.316c1.309-10.202,3.72-20.937,9.792-29.445
						c2.98-4.176,6.288-8.005,8.873-12.468c2.494-4.307,4.452-8.924,5.698-13.746c2.705-10.463,2.357-21.653-0.179-32.111
						c-2.663-10.981-7.966-20.658-14.474-29.808c-6.553-9.215-13.357-18.209-18.408-28.378c-5.002-10.071-8.31-21.2-7.424-32.541
						c0.916-11.729,6.074-22.543,10.086-33.434c3.742-10.16,6.692-21.371,4.39-32.21c-2.148-10.116-9.693-17.135-14.581-25.869
						c-1.213-2.167-2.192-4.432-2.849-6.829C52.169,214.151,50.963,214.48,51.176,215.258L51.176,215.258z"/>
				</g>
			</g>
		</g>
		<g style="clip-path:url(#SVGID_00000119796778942709694790000013358754118676097667_);">
			<g>
				<path style="fill:#DB7C26;" d="M-80.649,126.499c10.704,13.523,22.198,27.567,37.631,35.889
					c7.589,4.093,16.027,6.5,24.679,6.502c2.232,0.001,4.584-0.136,6.608-1.174c1.842-0.945,3.073-2.617,3.83-4.506
					c1.759-4.393,1.906-9.678,1.797-14.346c-0.242-10.33-2.954-20.383-4.939-30.464c-1.964-9.974-3.402-20.642-0.521-30.594
					c2.36-8.149,8.121-15.105,15.909-18.572c3.978-1.771,8.434-2.66,12.784-2.283c4.048,0.35,7.878,1.863,11.347,3.926
					c7.089,4.216,12.733,10.382,19.106,15.533c7.318,5.915,15.841,10.77,24.754,13.81c15.958,5.442,35.038,3.755,48.817-6.479
					c10.065-7.476,15.281-19.075,16.439-31.352c1.248-13.237-1.66-26.792-6.523-39.064c-3.091-7.802-7.24-15.099-11.398-22.371
					c-5.673-9.922-11.687-19.646-18.01-29.166c-5.828-8.775-11.806-17.672-13.79-28.21c-1.748-9.286-0.626-19.091,3.005-27.802
					c1.798-4.314,4.243-8.351,7.237-11.939c0.512-0.614-0.368-1.502-0.884-0.884c-11.8,14.141-14.683,34.454-7.326,51.321
					c4.372,10.025,11.29,18.853,17.107,28.056c6.07,9.604,11.818,19.411,17.232,29.4c6.442,11.886,10.972,25.016,12.112,38.542
					c1.039,12.329-0.897,25.524-8.738,35.49c-9.548,12.135-26.49,17.424-41.489,16.148c-10.085-0.858-19.657-4.734-28.267-9.917
					c-3.93-2.366-7.679-4.98-11.178-7.947c-3.093-2.624-6.052-5.402-9.143-8.028c-5.825-4.949-12.402-9.57-20.233-10.303
					C9.258,64.962,0.986,68.32-4.736,73.917c-14.188,13.877-9.525,35.464-5.88,52.67c2.154,10.169,4.302,20.669,2.766,31.089
					c-0.334,2.262-0.755,4.66-1.99,6.627c-1.547,2.464-4.26,3.185-7.008,3.31c-4.478,0.203-9.028-0.363-13.364-1.477
					c-17.2-4.42-30.476-17.577-41.601-30.737c-2.713-3.21-5.343-6.488-7.952-9.783C-80.264,124.985-81.143,125.875-80.649,126.499
					L-80.649,126.499z"/>
			</g>
		</g>
		<g style="clip-path:url(#SVGID_00000119796778942709694790000013358754118676097667_);">
			<path style="fill:#DB7C26;" d="M477.231-157.89c-29.103,16.782-48.816,52.157-40.544,86.439
				c4.252,17.621,19.781,30.148,35.167,38.25c16.01,8.43,32.494,10.078,50.056,6.619c8.433-1.661,16.209-2.388,24.599-0.028
				c9.073,2.553,17.558,7.407,24.696,13.509c13.749,11.751,20.671,28.597,28.996,44.192c8.015,15.014,18.267,28.994,34.024,36.48
				c13.94,6.622,30.02,7.664,44.886,3.924c18.852-4.743,33.445-18.717,41.619-36.057c8.914-18.912,9.867-40.267,8.294-60.783
				l-14.796,3.431c2.237,29.173-2.439,65.527-34.114,77.399c-12.264,4.597-26.349,4.343-38.353-0.966
				c-13.685-6.054-21.944-18.436-28.807-31.201c-7.584-14.108-13.922-28.908-24.877-40.848
				c-11.423-12.451-27.02-21.937-43.782-24.948c-15.541-2.792-30.168,4.773-45.591,2.585c-14.752-2.093-29.454-10.286-39.63-21.118
				c-12.061-12.841-10.377-31.702-4.371-47.024c6.558-16.729,18.518-30.371,34.052-39.328L477.231-157.89z"/>
		</g>
		<g style="clip-path:url(#SVGID_00000119796778942709694790000013358754118676097667_);">
			<g>
				<g>
					<path style="fill:#C32F27;" d="M755.46,30.298c1.678,10.042,0.369,20.247-2.102,30.043c-2.334,9.254-5.412,18.459-9.009,27.299
						c-3.467,8.521-7.953,16.639-14.543,23.151c-6.478,6.401-14.186,11.386-20.709,17.743c-6.383,6.22-11.837,13.411-16.095,21.241
						c-4.488,8.251-7.606,17.141-10.874,25.919c-3.149,8.458-6.537,16.819-11.264,24.537c-4.214,6.881-9.273,13.229-15,18.911
						c-11.36,11.271-25.353,19.923-40.605,24.809c-1.859,0.596-3.736,1.132-5.627,1.617c-0.663,0.17-0.55,1.305,0.166,1.228
						c8.951-0.961,14.663-9.351,18.96-16.408c5.108-8.389,8.916-17.58,11.249-27.12c5.029-20.569,1.127-42.193,6.761-62.636
						c4.666-16.931,15.054-32.235,29.025-42.871c14.008-10.665,31.233-14.945,46.86-22.519c7.619-3.693,14.902-8.321,20.58-14.681
						c6.092-6.823,10.151-15.428,11.682-24.438c0.377-2.218,0.602-4.457,0.685-6.704c0.03-0.805-1.22-0.803-1.25,0
						c-0.348,9.355-3.384,18.545-8.783,26.205c-5.071,7.195-12.165,12.541-19.862,16.664c-15.027,8.051-32.041,11.951-46.35,21.417
						c-14.088,9.319-25.073,23.106-31.212,38.825c-3.443,8.816-5.022,18.074-5.64,27.49c-0.703,10.719-0.399,21.505-1.731,32.181
						c-1.232,9.878-4.027,19.563-8.266,28.572c-2.096,4.454-4.534,8.745-7.294,12.82c-2.505,3.698-5.403,7.371-9.244,9.759
						c-1.885,1.172-3.96,1.956-6.172,2.194c0.055,0.409,0.111,0.818,0.166,1.228c15.555-3.996,30.022-11.787,42.088-22.367
						c6.052-5.306,11.484-11.314,16.147-17.876c4.962-6.983,8.834-14.563,12.047-22.491c3.655-9.021,6.6-18.327,10.638-27.192
						c3.886-8.53,8.935-16.456,15.23-23.416c6.286-6.949,13.888-12.267,20.922-18.385c7.017-6.103,12.292-13.383,16.225-21.796
						c3.981-8.517,6.988-17.585,9.655-26.588c2.828-9.549,4.937-19.502,4.511-29.513c-0.102-2.41-0.363-4.806-0.761-7.185
						C756.533,29.174,755.328,29.51,755.46,30.298L755.46,30.298z"/>
				</g>
			</g>
			<g>
				<g>
					<path style="fill:#C32F27;" d="M756.137,30.378c-2.084,16.656-8.281,32.707-17.71,46.579
						c-4.676,6.879-10.154,13.214-16.308,18.811c-6.986,6.353-14.943,11.36-22.708,16.677c-7.716,5.283-14.889,11.169-21.037,18.246
						c-5.974,6.876-10.851,14.587-14.891,22.738c-4.104,8.281-7.399,16.932-10.537,25.615c-2.807,7.769-5.648,15.529-8.24,23.373
						c-2.16,6.536-4.334,13.11-7.608,19.191c-3.574,6.638-8.451,12.392-14.379,17.049c-1.853,1.456-3.797,2.79-5.789,4.047
						c-0.679,0.428-0.052,1.51,0.631,1.079c6.768-4.271,12.798-9.599,17.36-16.208c3.942-5.71,6.631-12.128,8.91-18.65
						c5.65-16.166,10.757-32.608,17.667-48.299c3.767-8.553,8.221-16.837,13.886-24.293c5.843-7.69,12.864-14.369,20.683-20.021
						c7.744-5.598,16.012-10.46,23.381-16.572c6.387-5.297,12.109-11.369,17.091-18.002c10.002-13.316,16.954-28.981,19.937-45.375
						c0.361-1.986,0.66-3.983,0.91-5.986C757.486,29.582,756.235,29.589,756.137,30.378L756.137,30.378z"/>
				</g>
			</g>
			<g>
				<g>
					<path style="fill:#C32F27;" d="M756.643,30.978c-0.631,16.197-4.003,32.398-10.497,47.28
						c-6.331,14.507-15.718,27.782-28.22,37.608c-7.267,5.712-15.717,9.589-23.145,15.053c-7.542,5.547-13.312,12.957-18.717,20.512
						c-5.552,7.76-10.413,15.893-13.603,24.92c-3.218,9.105-5.155,18.623-8.716,27.612c-6.114,15.429-17.646,28.572-32.077,36.749
						c-1.782,1.01-3.608,1.938-5.468,2.796c-0.73,0.337-0.095,1.414,0.631,1.079c14.872-6.862,27.321-18.732,34.906-33.25
						c4.318-8.263,6.645-17.281,9.243-26.18c1.41-4.829,2.923-9.648,4.96-14.254c1.984-4.485,4.43-8.752,7.103-12.859
						c5.193-7.98,10.938-16.043,18.01-22.475c7.186-6.535,16.137-10.504,24.031-16.045c12.985-9.116,23.052-21.844,30.009-36.029
						c7.109-14.494,11.141-30.434,12.443-46.498c0.162-2.003,0.279-4.01,0.357-6.019C757.924,30.173,756.674,30.175,756.643,30.978
						L756.643,30.978z"/>
				</g>
			</g>
		</g>
		<g style="clip-path:url(#SVGID_00000119796778942709694790000013358754118676097667_);">
			<path style="fill:#C32F27;" d="M767.512,382.34c-44.505-4.891-88.871,18.937-106.472,60.915
				c-15.841,37.777,2.231,89.501,45.136,98.624c22.966,4.883,46.314-2.686,61.055-21.057l-18.14-11.656
				c-10.834,13.502-32.177,16.12-47.163,8.624c-16.648-8.328-25.758-27.88-25.326-45.942c1.094-45.777,50.319-72.335,91.433-67.817
				L767.512,382.34z"/>
		</g>
		
			<path style="clip-path:url(#SVGID_00000119796778942709694790000013358754118676097667_);fill:none;stroke:#DB7C26;stroke-miterlimit:10;" d="
			M564.074,475.189c-19.071-20.671-45.607-30.699-73.582-29.064c-21.845,1.276-42.891,8.661-62.859,17.61
			c-37.611,16.856-67.49,44.121-62.183,88.395c4.813,40.155,30.84,79.16,59.901,106.221c9.448,8.797,19.907,16.683,31.697,21.941
			c23.954,10.683,62.126,8.022,70.433-22.257c3.903-14.225-0.676-27.878,7.007-41.552c8.595-15.298,24.458-25.245,34.966-39.156
			c10.412-13.785,17.293-28.499,17.299-46.103C586.761,509.907,577.974,490.255,564.074,475.189z"/>
	</g>
</g>
</svg>
